HIERARCHY
ROOT Hips
{
    OFFSET 0.0 0.0 0.0
    CHANNELS 6 Xposition Yposition Zposition Zrotation Xrotation Yrotation
    JOINT LeftHipJoint
    {
        OFFSET 0.1 0.0 0.0
        CHANNELS 3 Zrotation Xrotation Yrotation
        JOINT LeftUpLeg
        {
            OFFSET 121.934809401482 0.0 0.0
            CHANNELS 3 Zrotation Xrotation Yrotation
            JOINT LeftLeg
            {
                OFFSET 0.0 0.0 -413.06220074831197
                CHANNELS 3 Zrotation Xrotation Yrotation
                JOINT LeftFoot
                {
                    OFFSET 0.0 0.0 -379.7717348880168
                    CHANNELS 3 Zrotation Xrotation Yrotation
                    End Site
                    {
                        OFFSET 0.0 -0.1 0.0
                    }
                }
            }
        }
    }
    JOINT LowerBack
    {
        OFFSET 0.0 0.0 0.1
        CHANNELS 3 Zrotation Xrotation Yrotation
        JOINT Spine
        {
            OFFSET 0.0 0.0 217.07334118429776
            CHANNELS 3 Zrotation Xrotation Yrotation
            JOINT Spine1
            {
                OFFSET 0.0 0.0 254.0497830128813
                CHANNELS 3 Zrotation Xrotation Yrotation
                JOINT LeftShoulder
                {
                    OFFSET 0.1 0.0 0.0
                    CHANNELS 3 Zrotation Xrotation Yrotation
                    JOINT LeftArm
                    {
                        OFFSET 138.71702456286886 0.0 0.0
                        CHANNELS 3 Zrotation Xrotation Yrotation
                        JOINT LeftForeArm
                        {
                            OFFSET 255.08449952110266 0.0 0.0
                            CHANNELS 3 Zrotation Xrotation Yrotation
                            JOINT LeftHand
                            {
                                OFFSET 234.64729466565137 0.0 0.0
                                CHANNELS 3 Zrotation Xrotation Yrotation
                                End Site
                                {
                                    OFFSET 0.1 0.0 0.0
                                }
                            }
                        }
                    }
                }
                JOINT Neck
                {
                    OFFSET 0.0 0.0 0.1
                    CHANNELS 3 Zrotation Xrotation Yrotation
                    JOINT Neck1
                    {
                        OFFSET 0.0 0.0 106.8995174330398
                        CHANNELS 3 Zrotation Xrotation Yrotation
                        End Site
                        {
                            OFFSET 0.0 0.0 112.4096813850453
                        }
                    }
                }
                JOINT RightShoulder
                {
                    OFFSET -0.1 0.0 0.0
                    CHANNELS 3 Zrotation Xrotation Yrotation
                    JOINT RightArm
                    {
                        OFFSET -138.71702456286886 0.0 0.0
                        CHANNELS 3 Zrotation Xrotation Yrotation
                        JOINT RightForeArm
                        {
                            OFFSET -255.08449952110266 0.0 0.0
                            CHANNELS 3 Zrotation Xrotation Yrotation
                            JOINT RightHand
                            {
                                OFFSET -234.64729466565137 0.0 0.0
                                CHANNELS 3 Zrotation Xrotation Yrotation
                                End Site
                                {
                                    OFFSET -0.1 0.0 0.0
                                }
                            }
                        }
                    }
                }
            }
        }
    }
    JOINT RightHipJoint
    {
        OFFSET -0.1 0.0 0.0
        CHANNELS 3 Zrotation Xrotation Yrotation
        JOINT RightUpLeg
        {
            OFFSET -121.934809401482 0.0 0.0
            CHANNELS 3 Zrotation Xrotation Yrotation
            JOINT RightLeg
            {
                OFFSET 0.0 0.0 -413.06220074831197
                CHANNELS 3 Zrotation Xrotation Yrotation
                JOINT RightFoot
                {
                    OFFSET 0.0 0.0 -379.7717348880168
                    CHANNELS 3 Zrotation Xrotation Yrotation
                    End Site
                    {
                        OFFSET 0.0 -0.1 0.0
                    }
                }
            }
        }
    }
}
MOTION
Frames: 4
Frame Time: 0.03333333333333333
0.0 0.0 803.2853793124435 20.91990303663699 -6.388945435572643 4.069688164244716 0.0 0.0 0.0 -0.02786937029072718 -0.2751673013079282 -3.5441489539910513 0.9011942985959492 18.995449768425676 1.4195541263005933 0.0 0.0 3.975693351829396e-16 0.0 0.0 0.0 -0.38504003151303734 -3.5614185911035854 -6.746936147342993 -1.413331047531789 -2.4748126488537445e-15 -8.257241482701536e-16 0.0 1.5902773407317584e-15 0.0 -23.150067494435117 -47.92229027010464 -4.762519991693228 -50.51150620495678 -8.003855584081249e-16 -3.894293335853397e-15 0.0 -1.5902773407317588e-15 0.0 0.0 1.5902773407317584e-15 0.0 8.493416748228007 3.937538850943683 2.3910777027099335 0.0 1.5902773407317584e-15 0.0 6.745125946649459 15.976134215360814 -72.99237139189556 17.31042582200554 -2.4263805807974615e-15 5.1951365278414305e-15 -3.1805546814635176e-15 5.517382872562698e-32 -1.9878466759146984e-15 0.0 0.0 0.0 -0.5252065324100958 -4.833690894000154 -2.653795585615048 1.8604150235617083 27.73380278465893 2.3223309080954495 0.0 0.0 3.975693351829396e-16
0.0 0.0 803.2853793124435 21.01402866817838 -6.236743760959538 4.2807227595607635 0.0 0.0 0.0 -0.05888382356615947 -0.5496277509530526 -3.7141419028503364 0.8974973982776019 19.201706452729837 1.345602954224468 0.0 0.0 3.975693351829396e-16 0.0 0.0 0.0 -0.3951890953824421 -3.579722265060436 -6.8375534236369 -1.590448088012573 1.9738607199224466e-15 1.0214165981756098e-15 0.0 0.0 1.987846675914698e-16 -24.302895173043943 -48.55450461901378 -5.164037345920576 -52.009032402056924 1.002381387512483e-15 -6.588662860401314e-15 6.3611093629270335e-15 0.0 0.0 0.0 0.0 1.987846675914698e-16 8.259448870945103 3.8720424847482544 2.3952837315837807 0.0 0.0 1.987846675914698e-16 7.028519720261439 15.799773262460679 -73.1629707344583 17.353458267981797 -8.95264565144772e-15 4.583603021358762e-15 0.0 0.0 7.951386703658792e-16 0.0 0.0 0.0 -0.5567963660945402 -5.0198658017723545 -2.9569082787826098 1.7680989858985878 27.712645217531325 2.3175551198330218 0.0 1.987846675914698e-16 0.0
0.0 0.0 803.2853793124435 21.174612849969655 -6.0772641537015195 4.487882901349721 0.0 0.0 0.0 -0.08529790527521468 -0.7763008150987958 -3.757612583421753 0.9137215283051311 19.18425530958801 1.1254332458568743 0.0 0.0 0.0 0.0 0.0 0.0 -0.41089841934205784 -3.667544426538329 -6.946332118963814 -1.716969398295028 7.771792829262136e-16 1.204487548213661e-15 0.0 0.0 0.0 -25.84690044562383 -50.00509269547775 -5.9390496210541555 -53.86743219426853 -7.46623469260704e-15 -2.258436206228781e-16 6.361109362927031e-15 -1.5902773407317576e-15 3.1805546814635156e-15 0.0 0.0 0.0 7.979468606408893 3.7663188305367448 2.357784291742267 0.0 0.0 0.0 7.941328739242897 16.212068536337625 -73.35863574270253 17.74616110554734 6.407629548178473e-15 -1.95554098753567e-16 0.0 0.0 0.0 0.0 0.0 0.0 -0.5760643802851971 -5.119346399644052 -3.086360948172534 1.7498839050614927 27.721448000444667 2.2229457818684706 0.0 0.0 -3.975693351829396e-16
0.0 0.0 803.2853793124435 21.31873108899836 -6.0984442102866865 4.590537908751754 0.0 0.0 -1.987846675914698e-16 -0.07947407272853031 -0.7156990959348208 -3.6665993146057922 0.9645871322520029 19.157742451231275 0.8545554609442327 0.0 0.0 0.0 0.0 0.0 -1.987846675914698e-16 -0.42652884049144857 -3.771546578250065 -6.928804940934308 -1.736324457085012 1.4937257902129052e-15 -1.7617239178971785e-16 0.0 0.0 3.975693351829396e-16 -27.419842572227054 -51.463626989409384 -6.784328916210057 -55.803429358626644 -5.621640742975932e-15 -2.9767209617347373e-15 0.0 0.0 0.0 0.0 0.0 3.975693351829396e-16 7.732659930458346 4.001458352561869 2.2544735686385 0.0 0.0 3.975693351829396e-16 8.56405848446589 16.506517699198373 -73.63227783707964 17.823588604204303 -2.895803185634721e-15 2.0637911745843296e-15 3.1805546814635168e-15 -7.724336021587778e-32 -2.782985346280577e-15 0.0 0.0 -1.987846675914698e-16 -0.5705875199548329 -5.025955485232569 -3.152025235396595 1.7564609573854262 27.86160386381849 2.1034742621119578 0.0 0.0 3.975693351829396e-16
